<svg xmlns="http://www.w3.org/2000/svg" viewBox="0 0 520 460" fill="none">
  <defs>
    <linearGradient id="bg" x1="0" y1="0" x2="1" y2="1">
      <stop offset="0" stop-color="#E5ECFB"></stop>
      <stop offset="1" stop-color="#C9D5F2"></stop>
    </linearGradient>
    <linearGradient id="cart" x1="0" y1="0" x2="0" y2="1">
      <stop offset="0" stop-color="#E8603C"></stop>
      <stop offset="1" stop-color="#C93E1E"></stop>
    </linearGradient>
    <linearGradient id="cartFront" x1="0" y1="0" x2="0" y2="1">
      <stop offset="0" stop-color="#F68C6E"></stop>
      <stop offset="1" stop-color="#E8603C"></stop>
    </linearGradient>
    <linearGradient id="coin" x1="0" y1="0" x2="0" y2="1">
      <stop offset="0" stop-color="#F7A583"></stop>
      <stop offset="1" stop-color="#E47A53"></stop>
    </linearGradient>
  </defs>

  
  <circle cx="280" cy="220" r="180" fill="url(#bg)"></circle>

  
  <g transform="translate(220,40)">
    <rect x="0" y="0" width="64" height="44" rx="10" fill="#2B4BF2"></rect>
    <circle cx="16" cy="22" r="5" fill="#fff"></circle>
    <circle cx="32" cy="22" r="5" fill="#fff"></circle>
    <circle cx="48" cy="22" r="5" fill="#fff"></circle>
  </g>
  <g transform="translate(300,70)">
    <rect x="0" y="0" width="52" height="36" rx="8" fill="#B9C7ED"></rect>
    <rect x="8" y="12" width="22" height="3" rx="1.5" fill="#2B4BF2"></rect>
    <rect x="8" y="20" width="30" height="3" rx="1.5" fill="#2B4BF2"></rect>
  </g>
  <circle cx="190" cy="90" r="16" fill="#E8603C"></circle>
  <path d="M190 82 v16 M182 90 h16" stroke="#fff" stroke-width="3" stroke-linecap="round"></path>

  
  <g transform="translate(160,210)">
    
    <rect x="18" y="110" width="12" height="40" rx="4" fill="#1E2A52"></rect>
    <rect x="34" y="110" width="12" height="40" rx="4" fill="#1E2A52"></rect>
    
    <path d="M10 60 Q32 40 54 60 L58 112 Q32 118 6 112 Z" fill="#2B4BF2"></path>
    
    <path d="M54 70 Q80 72 96 92" stroke="#F4C8A8" stroke-width="10" stroke-linecap="round" fill="none"></path>
    
    <rect x="86" y="78" width="38" height="28" rx="4" fill="#fff" stroke="#2B4BF2" stroke-width="2"></rect>
    <rect x="92" y="86" width="18" height="3" rx="1.5" fill="#2B4BF2"></rect>
    <rect x="92" y="93" width="26" height="3" rx="1.5" fill="#B9C7ED"></rect>
    
    <circle cx="32" cy="30" r="20" fill="#F4C8A8"></circle>
    <path d="M12 28 Q12 10 32 10 Q52 10 52 28 L52 22 Q42 18 32 20 Q22 18 12 22 Z" fill="#1E2A52"></path>
    <circle cx="38" cy="32" r="1.8" fill="#1E2A52"></circle>
  </g>

  
  <g transform="translate(280,170)">
    
    <path d="M30 30 L190 30 L170 140 L50 140 Z" fill="url(#cart)"></path>
    
    <path d="M20 60 L200 60 L180 170 L40 170 Z" fill="url(#cartFront)"></path>
    
    <line x1="60" y1="70" x2="50" y2="160" stroke="#C93E1E" stroke-width="2" opacity=".4"></line>
    <line x1="100" y1="70" x2="94" y2="160" stroke="#C93E1E" stroke-width="2" opacity=".4"></line>
    <line x1="140" y1="70" x2="140" y2="160" stroke="#C93E1E" stroke-width="2" opacity=".4"></line>
    <line x1="180" y1="70" x2="186" y2="160" stroke="#C93E1E" stroke-width="2" opacity=".4"></line>
    
    <path d="M0 18 L28 18 L46 50" stroke="#E8603C" stroke-width="6" stroke-linecap="round" fill="none"></path>
    
    <circle cx="70" cy="188" r="10" fill="#1E2A52"></circle>
    <circle cx="70" cy="188" r="4" fill="#fff"></circle>
    <circle cx="160" cy="188" r="10" fill="#1E2A52"></circle>
    <circle cx="160" cy="188" r="4" fill="#fff"></circle>
  </g>

  
  <g transform="translate(420,290)">
    <ellipse cx="22" cy="70" rx="26" ry="8" fill="#C93E1E" opacity=".4"></ellipse>
    <rect x="-4" y="40" width="52" height="30" rx="4" fill="url(#coin)"></rect>
    <ellipse cx="22" cy="40" rx="26" ry="8" fill="#F7A583"></ellipse>
    <text x="22" y="45" text-anchor="middle" font-family="Inter,sans-serif" font-weight="800" font-size="14" fill="#fff">$</text>
    <rect x="2" y="18" width="40" height="22" rx="3" fill="url(#coin)"></rect>
    <ellipse cx="22" cy="18" rx="20" ry="6" fill="#F7A583"></ellipse>
    <text x="22" y="22" text-anchor="middle" font-family="Inter,sans-serif" font-weight="800" font-size="11" fill="#fff">$</text>
  </g>
</svg>